<?xml version="1.0" encoding="utf-8"?>
<!-- Generator: Adobe Illustrator 19.0.1, SVG Export Plug-In . SVG Version: 6.00 Build 0)  -->
<svg version="1.1" id="Layer_1" xmlns="http://www.w3.org/2000/svg" xmlns:xlink="http://www.w3.org/1999/xlink" x="0px" y="0px"
	 viewBox="0 0 960 560" style="enable-background:new 0 0 960 560;" xml:space="preserve">
<style type="text/css">
	.st0{fill:#59E26C;stroke:#98EA7A;stroke-width:6;stroke-miterlimit:10;}
	.st1{fill:#5775C1;stroke:#6DCCA7;stroke-width:6;stroke-miterlimit:10;}
	.st2{fill:#E25096;stroke:#ED8CE4;stroke-width:6;stroke-miterlimit:10;}
	.st3{fill:#E25096;stroke:#ED8CE4;stroke-width:2;stroke-miterlimit:10;}
	.st4{fill:#D35D3D;stroke:#B23B28;stroke-width:6;stroke-miterlimit:10;}
	.st5{fill:#D35D3D;stroke:#B23B28;stroke-width:4;stroke-miterlimit:10;}
	.st6{fill:#343A35;stroke:#F2CF22;stroke-width:6;stroke-miterlimit:10;}
	.st7{fill:#343A35;stroke:#F2CF22;stroke-width:4;stroke-miterlimit:10;}
	.st8{fill:#343A35;stroke:#5EC437;stroke-width:6;stroke-miterlimit:10;}
	.st9{fill:#343A35;stroke:#5EC437;stroke-width:4;stroke-miterlimit:10;}
	.st10{fill:#343A35;stroke:#CD67E5;stroke-width:6;stroke-miterlimit:10;}
	.st11{fill:#343A35;stroke:#CD67E5;stroke-width:4;stroke-miterlimit:10;}
</style>
<polygon class="st0" points="53.3,100 54.3,82 41.8,83 33.3,91.5 18.1,77.3 20.5,55.2 26.8,60.8 48.8,60.8 37.4,49.3 37.4,37.5 
	60.8,14 80.3,38 80.3,49.8 68.8,61.3 87.3,61.7 95.7,55.5 99.6,77.7 84.3,92 75.8,83.5 62.7,82.5 61.8,100 "/>
<polygon class="st1" points="136.2,24.4 144.9,15.7 163.1,15.7 171,23.5 164.6,29.9 164.7,56.2 183.6,75.1 183.1,95.6 173.9,104.5 
	133.3,104.5 124.4,95.5 124.4,75.6 142.6,55.4 142.6,30.7 "/>
<path class="st2" d="M141.6,65.1c0,0,0.9,1.2,7.7-1.6c6.8-2.8,8.5-3.2,13.3-0.8c4.8,2.3,6.5,5.8,5.5,4.2c-1-1.7,9.3,9.3,9.3,9.3
	L177.3,93l-6.7,6h-33.3l-6.7-5.9L130,77.8L141.6,65.1z"/>
<circle class="st3" cx="149.5" cy="52.5" r="2"/>
<circle class="st3" cx="162.6" cy="82.6" r="4.8"/>
<circle class="st3" cx="147" cy="75.8" r="6"/>
<circle class="st3" cx="155.7" cy="34.9" r="2.7"/>
<circle class="st3" cx="154.2" cy="58.4" r="2.7"/>
<circle class="st3" cx="139.7" cy="92.9" r="2.7"/>
<circle class="st3" cx="163.3" cy="90.1" r="2.7"/>
<circle class="st3" cx="149.5" cy="80.6" r="2.7"/>
<circle class="st3" cx="157" cy="71.1" r="2.7"/>
<circle class="st3" cx="154.2" cy="91" r="2.7"/>
<polygon class="st4" points="216.7,99 216.7,54.5 262.4,8.8 275.8,22.2 275.8,67.9 231.7,113.7 "/>
<polygon class="st5" points="234.9,47.3 234.9,31.3 254.4,11.8 254.4,28.5 249.2,33.6 249.2,24.7 240,33.9 240,43.2 "/>
<polyline class="st5" points="231,109 231,67 275.8,22.2 "/>
<line class="st5" x1="218.7" y1="57" x2="231" y2="67"/>
<polyline class="st5" points="258.9,58.2 258.3,50.3 248.1,59.8 248.1,69 259.9,65.6 259.9,72.3 248.1,82.6 248.6,75.6 "/>
<line class="st5" x1="254" y1="49.1" x2="254" y2="84.6"/>
<polygon class="st6" points="314.8,116.7 387.6,189.5 399.3,189.5 380.5,208.3 380.5,195.3 308.1,122.9 296.6,122.9 314,105.6 "/>
<polygon class="st6" points="388.1,123.8 315.4,196.5 315.4,208.2 296.6,189.4 309.5,189.4 381.9,117 381.9,105.6 399.3,122.9 "/>
<polygon class="st6" points="316.3,138.1 334.6,119.8 363.6,119.8 379.6,135.8 379.6,170.4 363.3,170.4 363.3,182 331.5,182 
	331.5,169.4 316.3,169.4 "/>
<line class="st7" x1="326.7" y1="144.7" x2="339.2" y2="157.2"/>
<line class="st7" x1="326.7" y1="157.2" x2="339.2" y2="144.7"/>
<line class="st7" x1="355.7" y1="144.7" x2="368.2" y2="157.2"/>
<line class="st7" x1="355.7" y1="157.2" x2="368.2" y2="144.7"/>
<line class="st7" x1="339.7" y1="175.1" x2="339.7" y2="182"/>
<line class="st7" x1="348" y1="175.1" x2="348" y2="182"/>
<line class="st7" x1="355.7" y1="175.1" x2="355.7" y2="182"/>
<polyline class="st7" points="342.3,165.7 347.8,160.3 353.5,165.9 "/>
<polygon class="st8" points="27.2,153.8 45.5,135.5 74.5,135.5 90.5,151.4 90.5,186.1 74.2,186.1 74.2,197.7 42.4,197.7 42.4,185.1 
	27.2,185.1 "/>
<line class="st9" x1="37.5" y1="160.3" x2="50" y2="172.8"/>
<line class="st9" x1="37.5" y1="172.8" x2="50" y2="160.3"/>
<line class="st9" x1="66.5" y1="160.3" x2="79" y2="172.8"/>
<line class="st9" x1="66.5" y1="172.8" x2="79" y2="160.3"/>
<line class="st9" x1="50.5" y1="190.8" x2="50.5" y2="197.7"/>
<line class="st9" x1="58.8" y1="190.8" x2="58.8" y2="197.7"/>
<line class="st9" x1="66.5" y1="190.8" x2="66.5" y2="197.7"/>
<polyline class="st9" points="53.2,181.4 58.7,175.9 64.3,181.6 "/>
<polygon class="st10" points="120.1,154 138.4,135.7 167.4,135.7 183.4,151.7 183.4,186.3 167.1,186.3 167.1,198 135.3,198 
	135.3,185.3 120.1,185.3 "/>
<line class="st11" x1="130.4" y1="160.6" x2="142.9" y2="173.1"/>
<line class="st11" x1="130.4" y1="173.1" x2="142.9" y2="160.6"/>
<line class="st11" x1="159.4" y1="160.6" x2="171.9" y2="173.1"/>
<line class="st11" x1="159.4" y1="173.1" x2="171.9" y2="160.6"/>
<line class="st11" x1="143.4" y1="191" x2="143.4" y2="198"/>
<line class="st11" x1="151.7" y1="191" x2="151.7" y2="198"/>
<line class="st11" x1="159.4" y1="191" x2="159.4" y2="198"/>
<polyline class="st11" points="146.1,181.7 151.6,176.2 157.2,181.8 "/>
<polygon class="st6" points="211.9,155.6 230.2,137.3 259.3,137.3 275.3,153.3 275.3,188 258.9,188 258.9,199.6 227.2,199.6 
	227.2,187 211.9,187 "/>
<line class="st6" x1="222.3" y1="162.2" x2="234.8" y2="174.7"/>
<line class="st6" x1="222.3" y1="174.7" x2="234.8" y2="162.2"/>
<line class="st6" x1="251.3" y1="162.2" x2="263.8" y2="174.7"/>
<line class="st6" x1="251.3" y1="174.7" x2="263.8" y2="162.2"/>
<line class="st6" x1="235.3" y1="192.6" x2="235.3" y2="199.6"/>
<line class="st6" x1="243.6" y1="192.6" x2="243.6" y2="199.6"/>
<line class="st6" x1="251.3" y1="192.6" x2="251.3" y2="199.6"/>
<polyline class="st6" points="237.9,183.3 243.4,177.8 249.1,183.5 "/>
<polygon class="st4" points="308.8,75.7 321.5,89.1 397,89.1 397,36.7 384,23.6 308.8,23.6 "/>
<polyline class="st4" points="321.5,89.1 321.5,37.2 397,37.2 "/>
<line class="st4" x1="321.5" y1="37.2" x2="308.4" y2="24"/>
<polyline class="st4" points="366.3,55.1 366.3,49.9 348,49.9 348,63 366.3,63 366.3,76.4 348,76.4 348,70.6 "/>
<line class="st4" x1="357.1" y1="43.4" x2="357.1" y2="83.9"/>
<polygon class="st5" points="337.3,26.9 337.3,9.7 369,9.7 369,26.9 362.3,26.9 362.3,16.4 344,16.4 344,26.9 "/>
</svg>
